<svg width="19" height="19" viewBox="0 0 19 19" fill="none" xmlns="http://www.w3.org/2000/svg">
<g clip-path="url(#clip0_395_554)">
<path d="M12.1818 11.3672L8.34973 13.0723L4.30676 10.207V6.83203L5.78333 6.49805L8.71887 7.64062L8.8595 10.5762L9.9845 8.18555L12.5861 9.20508L12.1818 11.3672ZM8.4552 13.3711L12.9025 11.7539L12.7794 12.3867L7.99817 14.9707L2.53137 11.209L1.82825 7.06055L2.68958 8.13281L0.545044 4.72266L3.44543 6.33984L3.72668 10.0488L3.16418 9.9082L8.4552 13.5645V13.3711ZM13.4474 8.58984L12.92 11.666L12.5685 11.7539L12.7091 9.22266H12.9376L7.50598 6.12891H8.297L0.703247 4.65234L8.36731 3.93164L13.4474 8.58984Z" fill="white"/>
</g>
<defs>
<clipPath id="clip0_395_554">
<rect width="18" height="18.75" fill="white" transform="matrix(1 0 0 -1 0.545013 18.8262)"/>
</clipPath>
</defs>
</svg>
